# xmcd
#
# Track frame offsets:
#	150
#	16912
#	31687
#	47465
#	66141
#	79978
#	99825
#	114357
#	134967
#	149044
#	166281
#	181956
#	204204
#	223629
#	240316
#	257641
#	273016
#	285466
#	302142
#
# Disc length: 4251 seconds
#
# Revision: 3
# Processed by: cddbd v1.5.2PL0 Copyright (c) Steve Scherf et al.
# Submitted via: audiograbber 1.83.01
#
DISCID=03109913
DTITLE=Diverse - Aprés Ski 2008 [CD1)
DYEAR=2007
DGENRE=Humor
TTITLE0=Christian König - Ein Stern
TTITLE1=Die Balla Männer - Anton aus Tirol
TTITLE2=Los Molinos - Ab auf die Piste
TTITLE3=Anja Funke  - Andrea Berg Party Mix
TTITLE4=Die Balla Männer - Country Road
TTITLE5=The Voice - Superjeilezick
TTITLE6=Dj Roxagel - Ski Twist
TTITLE7=Die Balla Männer - Hey Babe
TTITLE8=Die Partygeier - Aber Dich gibt's nur einmal für mich
TTITLE9=Joe Joppers - I am the music man
TTITLE10=Miami Ritmo - Love Generation
TTITLE11=Chris Marlow - Holz vor der Hüt'n
TTITLE12=Christian König - Wie bist du denn d'rauf
TTITLE13=Les Charmeurs - Toutes les femmes son belles
TTITLE14=Joe Joppers - Kumbaja
TTITLE15=The Modern Art of Talking - Tribute To Modern Talking
TTITLE16=Marc Conrad - Only the Lonely
TTITLE17=Wilde Blumen - Schneewalzer
TTITLE18=Christian König - Eine Frau die mich nach Hause trägt
EXTD=
EXTT0=
EXTT1=
EXTT2=
EXTT3=
EXTT4=
EXTT5=
EXTT6=
EXTT7=
EXTT8=
EXTT9=
EXTT10=
EXTT11=
EXTT12=
EXTT13=
EXTT14=
EXTT15=
EXTT16=
EXTT17=
EXTT18=
PLAYORDER=
